<svg width="18" height="18" viewBox="0 0 18 18" fill="none" xmlns="http://www.w3.org/2000/svg">
<path fill-rule="evenodd" clip-rule="evenodd" d="M5.18525 15.5581C5.53692 15.5581 5.82275 15.8439 5.82275 16.1956C5.82275 16.5473 5.53692 16.8323 5.18525 16.8323C4.83358 16.8323 4.54858 16.5473 4.54858 16.1956C4.54858 15.8439 4.83358 15.5581 5.18525 15.5581Z" stroke="#A8A8A8" stroke-width="2" stroke-linecap="round" stroke-linejoin="round"/>
<path fill-rule="evenodd" clip-rule="evenodd" d="M14.5623 15.5581C14.914 15.5581 15.1998 15.8439 15.1998 16.1956C15.1998 16.5473 14.914 16.8323 14.5623 16.8323C14.2106 16.8323 13.9248 16.5473 13.9248 16.1956C13.9248 15.8439 14.2106 15.5581 14.5623 15.5581Z" stroke="#A8A8A8" stroke-width="2" stroke-linecap="round" stroke-linejoin="round"/>
<path d="M1.29163 1.74023L3.02496 2.04043L3.82746 11.6076C3.89246 12.3873 4.54329 12.9861 5.32496 12.9861H14.4183C15.165 12.9861 15.7983 12.4374 15.9058 11.6969L16.6966 6.22823C16.7941 5.55361 16.2716 4.94987 15.5908 4.94987H3.30329" stroke="#A8A8A8" stroke-width="2" stroke-linecap="round" stroke-linejoin="round"/>
<path d="M10.7712 8.03166H13.0821" stroke="#A8A8A8" stroke-linecap="round" stroke-linejoin="round"/>
</svg>
