<svg width="18" height="18" viewBox="0 0 18 18" fill="none" xmlns="http://www.w3.org/2000/svg">
<path fill-rule="evenodd" clip-rule="evenodd" d="M9.1985 10.1589C8.6612 10.1589 8.22469 9.72241 8.22469 9.18511C8.22469 8.6494 8.6612 8.21289 9.1985 8.21289C9.73581 8.21289 10.1723 8.6494 10.1723 9.18511C10.1723 9.72241 9.73581 10.1589 9.1985 10.1589ZM5.41277 10.159C4.87547 10.159 4.43896 9.72245 4.43896 9.18515C4.43896 8.64943 4.87547 8.21293 5.41277 8.21293C5.95008 8.21293 6.38658 8.64943 6.38658 9.18515C6.38658 9.72245 5.95008 10.159 5.41277 10.159ZM12.0104 9.18511C12.0104 9.72241 12.4469 10.1589 12.9842 10.1589C13.5215 10.1589 13.958 9.72241 13.958 9.18511C13.958 8.6494 13.5215 8.21289 12.9842 8.21289C12.4469 8.21289 12.0104 8.6494 12.0104 9.18511Z" fill="#200E32"/>
<path fill-rule="evenodd" clip-rule="evenodd" d="M9.01675 0.666504C4.17508 0.666504 0.666748 4.6216 0.666748 9.01236C0.666748 10.4145 1.07508 11.8575 1.79175 13.1761C1.92508 13.3939 1.94175 13.6685 1.85008 13.9281L1.29175 15.7975C1.16675 16.2482 1.55008 16.5812 1.97508 16.4477L3.65841 15.9478C4.11675 15.7975 4.47508 15.9887 4.90008 16.2482C6.11675 16.9651 7.63341 17.3332 9.00008 17.3332C13.1334 17.3332 17.3334 14.1367 17.3334 8.98732C17.3334 4.54649 13.7501 0.666504 9.01675 0.666504Z" stroke="#200E32" stroke-width="1.23288" stroke-linecap="round" stroke-linejoin="round"/>
</svg>
