<svg width="10" height="10" viewBox="0 0 10 10" fill="none" xmlns="http://www.w3.org/2000/svg">
<g clip-path="url(#clip0_178_1556)">
<path d="M3.45817 9.12504L2.81234 8.02087L1.52067 7.76046C1.44428 7.74657 1.38005 7.7049 1.32796 7.63546C1.27588 7.56601 1.25678 7.49309 1.27067 7.41671L1.4165 6.16671L0.593587 5.20837C0.538032 5.15282 0.510254 5.08337 0.510254 5.00004C0.510254 4.91671 0.538032 4.84726 0.593587 4.79171L1.4165 3.84379L1.27067 2.59379C1.25678 2.5174 1.27588 2.44448 1.32796 2.37504C1.38005 2.30559 1.44428 2.26393 1.52067 2.25004L2.81234 1.98962L3.45817 0.875038C3.49984 0.805594 3.55887 0.756983 3.63525 0.729205C3.71164 0.701427 3.78803 0.704899 3.86442 0.739622L4.99984 1.27087L6.13525 0.739622C6.21164 0.704899 6.28803 0.699691 6.36442 0.723997C6.44081 0.748302 6.49984 0.795177 6.5415 0.864622L7.19775 1.98962L8.479 2.25004C8.55539 2.26393 8.61963 2.30559 8.67171 2.37504C8.7238 2.44448 8.74289 2.5174 8.729 2.59379L8.58317 3.84379L9.40609 4.79171C9.46164 4.84726 9.48942 4.91671 9.48942 5.00004C9.48942 5.08337 9.46164 5.15282 9.40609 5.20837L8.58317 6.16671L8.729 7.41671C8.74289 7.49309 8.7238 7.56601 8.67171 7.63546C8.61963 7.7049 8.55539 7.74657 8.479 7.76046L7.19775 8.02087L6.5415 9.13546C6.49984 9.2049 6.44081 9.25177 6.36442 9.27608C6.28803 9.30039 6.21164 9.29518 6.13525 9.26046L4.99984 8.72921L3.86442 9.26046C3.78803 9.29518 3.71164 9.29865 3.63525 9.27087C3.55887 9.24309 3.49984 9.19448 3.45817 9.12504ZM3.88525 8.55212L4.99984 8.08337L6.14567 8.55212L6.84359 7.51046L8.06234 7.19796L7.93734 5.95837L8.78109 5.00004L7.93734 4.02087L8.06234 2.78129L6.84359 2.48962L6.12484 1.44796L4.99984 1.91671L3.854 1.44796L3.15609 2.48962L1.93734 2.78129L2.06234 4.02087L1.21859 5.00004L2.06234 5.95837L1.93734 7.21879L3.15609 7.51046L3.88525 8.55212ZM4.55192 5.48962L3.7915 4.69795C3.729 4.62851 3.65262 4.59379 3.56234 4.59379C3.47206 4.59379 3.3922 4.62504 3.32275 4.68754C3.25331 4.75698 3.21859 4.83684 3.21859 4.92712C3.21859 5.0174 3.25331 5.09726 3.32275 5.16671L4.33317 6.16671C4.39567 6.22921 4.46859 6.26046 4.55192 6.26046C4.63525 6.26046 4.70817 6.22921 4.77067 6.16671L6.67692 4.27087C6.73942 4.20837 6.77067 4.13198 6.77067 4.0417C6.77067 3.95143 6.73595 3.87504 6.6665 3.81254C6.604 3.75698 6.52935 3.73094 6.44255 3.73441C6.35574 3.73789 6.28456 3.7674 6.229 3.82295L4.55192 5.48962Z" fill="#65CBF3"/>
</g>
<defs>
<clipPath id="clip0_178_1556">
<rect width="10" height="10" fill="white"/>
</clipPath>
</defs>
</svg>
