<svg width="20" height="18" viewBox="0 0 20 18" fill="none" xmlns="http://www.w3.org/2000/svg">
<path d="M18.5999 10.2086L18.082 8.13688C18.2236 8.1068 18.3298 7.98117 18.3298 7.83067V7.49664C18.3298 6.77141 17.7398 6.18141 17.0146 6.18141H14.6555V5.49246C14.6555 5.13559 14.3652 4.84528 14.0084 4.84528H9.62188L12.2875 3.77903C12.4481 3.71481 12.5262 3.53254 12.462 3.37196C12.3977 3.21141 12.2156 3.13325 12.0549 3.1975L9.8723 4.07051C10.5374 3.64379 11.1954 3.17414 11.4459 2.84571C11.9336 2.20629 11.8101 1.28934 11.1707 0.801644C10.5312 0.313909 9.6143 0.437464 9.1266 1.07688C8.77027 1.54414 8.30012 2.85707 7.99582 3.78227C7.69152 2.85715 7.22137 1.54414 6.86504 1.07688C6.37738 0.437464 5.46039 0.313987 4.82098 0.801644C4.18156 1.2893 4.05809 2.20625 4.54574 2.84571C4.79625 3.17418 5.45422 3.64379 6.11934 4.07051L3.93676 3.1975C3.77609 3.13317 3.59391 3.21137 3.52969 3.37196C3.46543 3.53254 3.54355 3.71481 3.70414 3.77903L6.36977 4.84528H1.98328C1.62641 4.84528 1.33609 5.13559 1.33609 5.49246V11.171C1.33609 11.3439 1.47629 11.4841 1.64926 11.4841C1.82219 11.4841 1.96242 11.3439 1.96242 11.171V5.49246C1.96242 5.48094 1.97176 5.4716 1.98328 5.4716H14.0083C14.0198 5.4716 14.0292 5.48094 14.0292 5.49246V11.1711C14.0292 11.344 14.1694 11.4842 14.3423 11.4842C14.5153 11.4842 14.6555 11.344 14.6555 11.1711V10.8161H18.3495C18.3498 10.8161 18.3501 10.8161 18.3505 10.8161C18.3508 10.8161 18.3511 10.8161 18.3515 10.8161C18.806 10.8164 19.192 11.1148 19.3245 11.5259H18.3507C18.1778 11.5259 18.0375 11.6661 18.0375 11.8391V12.5071C18.0375 13.0482 18.4777 13.4883 19.0187 13.4883H19.3737V14.8662H18.5548C18.2859 14.0895 17.5475 13.53 16.6805 13.53C15.8136 13.53 15.0752 14.0895 14.8063 14.8662H14.6555V12.5071C14.6555 12.3341 14.5153 12.1939 14.3423 12.1939C14.1694 12.1939 14.0291 12.3341 14.0291 12.5071V14.8661H7.53191C7.26293 14.0895 6.52461 13.53 5.65762 13.53C4.79063 13.53 4.05227 14.0895 3.78332 14.8661H1.98328C1.97176 14.8661 1.96242 14.8568 1.96242 14.8453V14.1563H3.31941C3.49234 14.1563 3.63258 14.0161 3.63258 13.8432C3.63258 13.6702 3.49238 13.53 3.31941 13.53H0.313164C0.140234 13.53 0 13.6702 0 13.8432C0 14.0161 0.140195 14.1563 0.313164 14.1563H1.33613V14.8453C1.33613 15.2022 1.62645 15.4925 1.98332 15.4925H3.67488C3.6748 15.4994 3.67434 15.5063 3.67434 15.5133C3.67434 16.6069 4.56406 17.4966 5.65762 17.4966C6.75117 17.4966 7.6409 16.6069 7.6409 15.5133C7.6409 15.5063 7.64043 15.4994 7.64035 15.4925H14.6978C14.6977 15.4994 14.6972 15.5063 14.6972 15.5133C14.6972 16.6069 15.587 17.4966 16.6805 17.4966C17.7741 17.4966 18.6638 16.6069 18.6638 15.5133C18.6638 15.5063 18.6633 15.4994 18.6632 15.4925H19.6868C19.8597 15.4925 20 15.3523 20 15.1793V11.839C20 11.0143 19.3915 10.329 18.5999 10.2086ZM6.75391 3.72891C5.51863 2.96129 5.15223 2.60813 5.04375 2.46586C4.76551 2.10106 4.83598 1.57789 5.20082 1.29965C5.35121 1.18496 5.52848 1.12953 5.70445 1.12953C5.95531 1.12953 6.20352 1.24227 6.36707 1.45672C6.67 1.85391 7.14441 3.19075 7.45762 4.15407C7.24625 4.02961 7.00328 3.88395 6.75391 3.72891ZM8.5341 4.15403C8.84731 3.19075 9.32172 1.85395 9.62461 1.45668C9.90285 1.09188 10.426 1.02145 10.7908 1.29965C11.1557 1.57789 11.2261 2.10106 10.9479 2.46586C10.8394 2.60809 10.473 2.96129 9.23781 3.72887C8.98848 3.88387 8.74551 4.02957 8.5341 4.15403ZM14.6555 6.80766H17.0146C17.3945 6.80766 17.7036 7.11672 17.7036 7.4966V7.51746H14.6555V6.80766ZM14.6555 10.1897V8.14379H17.4382L17.9496 10.1897H14.6555ZM5.65762 16.8703C4.90938 16.8703 4.30062 16.2616 4.30062 15.5133C4.30062 14.7651 4.90938 14.1563 5.65762 14.1563C6.40586 14.1563 7.01461 14.7651 7.01461 15.5133C7.01461 16.2616 6.40586 16.8703 5.65762 16.8703ZM16.6806 16.8703C15.9323 16.8703 15.3236 16.2616 15.3236 15.5133C15.3236 14.7651 15.9323 14.1563 16.6806 14.1563C17.4288 14.1563 18.0376 14.7651 18.0376 15.5133C18.0376 16.2616 17.4288 16.8703 16.6806 16.8703ZM19.3737 12.862H19.0188C18.8231 12.862 18.6639 12.7027 18.6639 12.507V12.1521H19.3737V12.862H19.3737Z" fill="#A8A8A8"/>
</svg>
