<svg width="18" height="20" viewBox="0 0 18 20" fill="none" xmlns="http://www.w3.org/2000/svg">
<path d="M3.20546 12.8393L8.65529 15.5535C8.67661 15.5535 8.67661 15.5748 8.69808 15.5748H8.7194H8.7835H8.84761H8.86892C8.89024 15.5748 8.91171 15.5748 8.91171 15.5535L14.3402 12.8393H14.3615L14.4041 12.7966L14.4254 12.7753L14.4681 12.7327C14.4681 12.7327 14.4681 12.7113 14.4894 12.7113C14.4894 12.7113 14.4894 12.69 14.5107 12.69V12.6687V12.6474V12.6046V12.5833L14.5112 7.15444C14.5112 7.13312 14.5112 7.09033 14.4899 7.06901V7.0477C14.4899 7.02638 14.4685 7.00491 14.4685 6.98359V6.96227C14.4472 6.94096 14.4472 6.91949 14.4257 6.89817L14.4044 6.87685C14.3831 6.85553 14.3616 6.85553 14.3403 6.83407L8.93323 4.14098C8.84781 4.09819 8.74092 4.09819 8.65535 4.14098L3.20551 6.85525C3.18419 6.85525 3.16273 6.87657 3.14141 6.89803L3.12009 6.91935C3.09877 6.94067 3.0773 6.96214 3.0773 6.98346V7.00477C3.0773 7.02609 3.05599 7.04756 3.05599 7.06888V7.0902C3.05599 7.11151 3.03467 7.13298 3.03467 7.17562V12.6041V12.6254V12.6682V12.6895V12.7108C3.03467 12.7108 3.03467 12.7321 3.05599 12.7321C3.05599 12.7321 3.05599 12.7535 3.0773 12.7535L3.09862 12.7748L3.16258 12.8387C3.18419 12.8395 3.18419 12.8395 3.20551 12.8395L3.20546 12.8393ZM11.4978 10.9372C11.6688 10.9372 11.8183 10.7875 11.8183 10.6166V8.69324L13.8914 7.66743V12.3692L9.10404 14.7627V10.0609L11.1771 9.03507V10.638C11.1771 10.7875 11.3268 10.9372 11.4978 10.9372ZM8.46295 14.7627L3.67564 12.3691V7.66729L8.46295 10.0609V14.7627ZM8.78346 4.80341L13.4853 7.1544L11.4978 8.15888L6.79595 5.80789L8.78346 4.80341ZM6.06919 6.14973L10.771 8.50072L8.7835 9.5052L4.08168 7.15421L6.06919 6.14973Z" fill="#A8A8A8"/>
<path d="M17.5674 9.86861C17.5674 9.69762 17.4177 9.5481 17.2469 9.5481C17.0759 9.5481 16.9264 9.69777 16.9264 9.86861C16.9264 14.1644 13.5709 17.7121 9.33935 17.9899L10.5576 17.3915C10.7073 17.3061 10.7714 17.1136 10.7073 16.9641C10.6219 16.8145 10.4294 16.7503 10.2799 16.8145L7.77939 18.054C7.6725 18.1181 7.6084 18.225 7.6084 18.3319C7.6084 18.4388 7.6725 18.567 7.77939 18.6098L10.2799 19.8494C10.3227 19.8707 10.3653 19.8921 10.4296 19.8921C10.5578 19.8921 10.6647 19.828 10.7075 19.7211C10.7929 19.5715 10.7288 19.3792 10.5578 19.2937L9.2754 18.6525C13.8913 18.3745 17.5673 14.5491 17.5673 9.86869L17.5674 9.86861Z" fill="#A8A8A8"/>
<path d="M7.00991 2.49551C6.86023 2.58093 6.79613 2.77339 6.86023 2.92291C6.92434 3.0298 7.03122 3.0939 7.13811 3.0939C7.1809 3.0939 7.22353 3.07258 7.28779 3.05111L9.7883 1.81154C9.89519 1.74744 9.95929 1.64055 9.95929 1.53366C9.95929 1.42678 9.89519 1.29857 9.7883 1.25578L7.30912 0.0376605C7.15944 -0.0477623 6.96714 0.0163423 6.88172 0.187336C6.7963 0.337012 6.8604 0.529321 7.0314 0.614736L8.05721 1.1277C3.54774 1.491 0 5.27385 0 9.86881C0 10.0398 0.149676 10.1893 0.320517 10.1893C0.491512 10.1893 0.641035 10.0397 0.641035 9.86881C0.641035 5.44483 4.16732 1.85435 8.54864 1.72611L7.00991 2.49551Z" fill="#A8A8A8"/>
</svg>
