<svg width="20" height="20" viewBox="0 0 20 20" fill="none" xmlns="http://www.w3.org/2000/svg">
<path d="M6.58763 13.0225C6.58763 11.1457 9.02138 10.8455 9.02138 9.81153C9.02138 9.35725 8.66978 9.08565 8.22985 9.08565C7.62158 9.08565 7.29145 9.7017 7.29145 9.7017L6.58766 9.23252C6.58766 9.23252 7.064 8.19144 8.31044 8.19144C9.22674 8.19144 10.004 8.74837 10.004 9.73095C10.004 11.4024 7.67289 11.6883 7.6508 12.6709H10.0846V13.4845H6.63181C6.60972 13.3162 6.58763 13.1693 6.58763 13.0225ZM10.6146 11.5636L12.858 8.27918H13.9796V11.3582H14.6542V12.1432H13.9796V13.4846H13.0484V12.1432H10.6146V11.5636ZM13.0484 11.3582V9.74591C13.0484 9.48925 13.0854 9.2033 13.0854 9.2033H13.0704C13.0704 9.2033 12.9534 9.48147 12.8138 9.67964L11.6115 11.3439V11.3582H13.0484ZM17.6397 11.0823L17.4586 11.7312C16.429 15.4195 12.6719 17.7468 8.95531 16.8244C5.38557 15.9385 3.16701 12.4794 3.70048 8.95536L4.7761 9.25562C5.02541 9.32523 5.25662 9.09882 5.19221 8.84807L4.02247 4.29318C3.95809 4.04246 3.64646 3.95547 3.46149 4.13658L0.101202 7.42683C-0.0837651 7.60794 -0.0033077 7.92141 0.246071 7.99101L1.41685 8.31784C0.543129 13.0849 3.48401 17.8326 8.28308 19.0823C13.2664 20.38 18.3492 17.2955 19.7338 12.3356L19.907 11.7153C19.957 11.5364 19.8524 11.3509 19.6736 11.301L18.054 10.8489C17.8752 10.7989 17.6897 10.9035 17.6397 11.0823ZM19.5534 8.24409L17.8551 8.46474C17.6709 8.48866 17.541 8.65735 17.5649 8.84154L17.6318 9.35663C17.6557 9.54082 17.8245 9.67072 18.0086 9.64676L19.707 9.42611C19.8912 9.40219 20.021 9.2335 19.9971 9.04931L19.9302 8.53422C19.9063 8.35007 19.7376 8.22016 19.5534 8.24409ZM18.246 5.03481L16.754 5.87563C16.5922 5.9668 16.5349 6.17187 16.6261 6.3337L16.8811 6.78621C16.9723 6.94801 17.1773 7.00526 17.3392 6.91409L18.8312 6.07327C18.993 5.9821 19.0502 5.77703 18.959 5.6152L18.704 5.16269C18.6129 5.00089 18.4078 4.94363 18.246 5.03481ZM15.8316 2.549L14.7631 3.88749C14.6473 4.03262 14.671 4.24426 14.8162 4.36007L15.2222 4.68412C15.3673 4.80001 15.5789 4.77625 15.6947 4.63109L16.7632 3.29259C16.879 3.14743 16.8553 2.93583 16.7101 2.81998L16.3041 2.49593C16.159 2.38011 15.9474 2.40383 15.8316 2.549ZM12.6617 1.14864L12.1725 2.78991C12.1195 2.96789 12.2208 3.15521 12.3987 3.20824L12.8965 3.35661C13.0744 3.40968 13.2618 3.30837 13.3148 3.13043L13.8041 1.48916C13.8571 1.31119 13.7558 1.1239 13.5778 1.07083L13.0801 0.922464C12.9021 0.869392 12.7148 0.970666 12.6617 1.14864ZM9.19815 1.03769L9.35936 2.74272C9.37684 2.92762 9.54092 3.06334 9.72579 3.04586L10.2429 2.99694C10.4278 2.97945 10.5635 2.8154 10.5461 2.6305L10.3848 0.92547C10.3673 0.740569 10.2032 0.604883 10.0184 0.622366L9.50125 0.671255C9.31638 0.688739 9.18066 0.852791 9.19815 1.03769ZM5.94521 2.23233L6.73341 3.75279C6.81887 3.91765 7.02184 3.98203 7.18675 3.89654L7.64789 3.65752C7.81276 3.57203 7.87714 3.36909 7.79165 3.20419L7.00345 1.68374C6.91799 1.51887 6.71501 1.45449 6.55011 1.53998L6.08897 1.77903C5.9241 1.86446 5.85975 2.06743 5.94521 2.23233Z" fill="#A8A8A8"/>
</svg>
    