<svg width="20" height="20" viewBox="0 0 20 20" fill="none" xmlns="http://www.w3.org/2000/svg">
<path d="M2.79438 5.05575C2.79438 3.80675 3.80738 2.79375 5.05538 2.79375H6.08438C6.68038 2.79375 7.25338 2.55775 7.67738 2.13675L8.39638 1.41675C9.27738 0.531746 10.7094 0.527746 11.5944 1.40875L11.6034 1.41675L12.3234 2.13675C12.7464 2.55775 13.3194 2.79375 13.9164 2.79375H14.9444C16.1934 2.79375 17.2064 3.80675 17.2064 5.05575V6.08275C17.2064 6.68075 17.4424 7.25275 17.8634 7.67675L18.5834 8.39675C19.4684 9.27775 19.4734 10.7087 18.5924 11.5947L18.5834 11.6037L17.8634 12.3237C17.4424 12.7457 17.2064 13.3197 17.2064 13.9157V14.9447C17.2064 16.1937 16.1934 17.2057 14.9444 17.2057H13.9164C13.3194 17.2057 12.7464 17.4427 12.3234 17.8637L11.6034 18.5827C10.7234 19.4687 9.29138 19.4727 8.40538 18.5917C8.40238 18.5887 8.39938 18.5857 8.39638 18.5827L7.67738 17.8637C7.25338 17.4427 6.68038 17.2057 6.08438 17.2057H5.05538C3.80738 17.2057 2.79438 16.1937 2.79438 14.9447V13.9157C2.79438 13.3197 2.55738 12.7457 2.13638 12.3237L1.41738 11.6037C0.531378 10.7227 0.527378 9.29075 1.40838 8.40575L1.41738 8.39675L2.13638 7.67675C2.55738 7.25275 2.79438 6.68075 2.79438 6.08275V5.05575" stroke="#A8A8A8" stroke-width="1.5" stroke-linecap="round" stroke-linejoin="round"/>
<path d="M7.43018 12.5694L12.5702 7.42944" stroke="#A8A8A8" stroke-width="1.5" stroke-linecap="round" stroke-linejoin="round"/>
<path d="M12.5669 13.3223C12.3669 13.3223 12.1769 13.2423 12.0369 13.1023C11.9669 13.0323 11.9169 12.9423 11.8769 12.8523C11.8369 12.7623 11.8169 12.6733 11.8169 12.5723C11.8169 12.4723 11.8369 12.3723 11.8769 12.2823C11.9169 12.1923 11.9669 12.1123 12.0369 12.0423C12.3169 11.7623 12.8169 11.7623 13.0969 12.0423C13.1669 12.1123 13.2269 12.1923 13.2669 12.2823C13.2969 12.3723 13.3169 12.4723 13.3169 12.5723C13.3169 12.6733 13.2969 12.7623 13.2669 12.8523C13.2269 12.9423 13.1669 13.0323 13.0969 13.1023C12.9569 13.2423 12.7669 13.3223 12.5669 13.3223Z" fill="#A8A8A8"/>
<path d="M7.42676 8.18264C7.32676 8.18264 7.23676 8.16164 7.14676 8.12164C7.05676 8.08164 6.96676 8.03264 6.89676 7.96264C6.82676 7.88264 6.77676 7.80264 6.73676 7.71264C6.69676 7.62164 6.67676 7.53264 6.67676 7.43264C6.67676 7.33164 6.69676 7.23264 6.73676 7.14264C6.77676 7.05264 6.82676 6.96264 6.89676 6.90264C7.18676 6.62164 7.67676 6.62164 7.95676 6.90264C8.09676 7.04164 8.17676 7.23264 8.17676 7.43264C8.17676 7.53264 8.16676 7.62164 8.12676 7.71264C8.08676 7.80264 8.02676 7.88264 7.95676 7.96264C7.88676 8.03264 7.80676 8.08164 7.71676 8.12164C7.62676 8.16164 7.52676 8.18264 7.42676 8.18264Z" fill="#A8A8A8"/>
</svg>
