<svg width="21" height="20" viewBox="0 0 21 20" fill="none" xmlns="http://www.w3.org/2000/svg">
<path d="M0.516602 10.002C0.517765 14.9214 4.095 19.11 8.9536 19.881V12.892H6.4166V10.002H8.9566V7.80201C8.84305 6.75955 9.19912 5.72061 9.92824 4.96695C10.6574 4.21328 11.684 3.82303 12.7296 3.90201C13.4801 3.91413 14.2288 3.98098 14.9696 4.10201V6.56101H13.7056C13.2704 6.50402 12.833 6.64774 12.5164 6.95168C12.1998 7.25563 12.0384 7.6869 12.0776 8.12401V10.002H14.8486L14.4056 12.893H12.0776V19.881C17.3321 19.0506 21.0167 14.2518 20.4621 8.96109C19.9075 3.67038 15.3079 -0.260057 9.99543 0.0171922C4.68296 0.294442 0.517446 4.68232 0.516602 10.002Z" fill="white"/>
</svg>
