<svg width="24" height="24" viewBox="0 0 24 24" fill="none" xmlns="http://www.w3.org/2000/svg">
<path fill-rule="evenodd" clip-rule="evenodd" d="M9.87737 15.2062C6.03337 15.2062 2.75037 15.7872 2.75037 18.1152C2.75037 20.4422 6.01237 21.0452 9.87737 21.0452C13.7214 21.0452 17.0044 20.4632 17.0044 18.1362C17.0044 15.8092 13.7424 15.2062 9.87737 15.2062Z" stroke="#65CBF3" stroke-linecap="round" stroke-linejoin="round"/>
<path fill-rule="evenodd" clip-rule="evenodd" d="M9.87733 11.8859C12.4133 11.8859 14.4453 9.85288 14.4453 7.31788C14.4453 4.78188 12.4133 2.74988 9.87733 2.74988C7.34233 2.74988 5.30933 4.78188 5.30933 7.31788C5.30933 9.85288 7.34233 11.8859 9.87733 11.8859Z" stroke="#65CBF3" stroke-linecap="round" stroke-linejoin="round"/>
<path d="M19.2041 8.66907V12.6791" stroke="#65CBF3" stroke-linecap="round" stroke-linejoin="round"/>
<path d="M21.2499 10.674H17.1599" stroke="#65CBF3" stroke-linecap="round" stroke-linejoin="round"/>
</svg>
