<svg width="18" height="19" viewBox="0 0 18 19" fill="none" xmlns="http://www.w3.org/2000/svg">
<path d="M9.47085 7.9826V11.4336H14.2629C13.8169 13.6266 11.9499 14.8866 9.47085 14.8866C6.5834 14.8469 4.26351 12.4948 4.26351 9.6071C4.26351 6.71937 6.5834 4.36734 9.47085 4.3276C10.6711 4.32616 11.8343 4.74267 12.7609 5.5056L15.3609 2.9056C12.3784 0.283665 8.02286 -0.0535678 4.67241 2.07804C1.32196 4.20965 -0.218123 8.29781 0.893102 12.1102C2.00433 15.9226 5.4998 18.543 9.47085 18.5406C13.9379 18.5406 17.9999 15.2916 17.9999 9.6066C17.993 9.05924 17.9259 8.51429 17.7999 7.9816L9.47085 7.9826Z" fill="white"/>
</svg>
