<svg width="18" height="18" viewBox="0 0 18 18" fill="none" xmlns="http://www.w3.org/2000/svg">
<path fill-rule="evenodd" clip-rule="evenodd" d="M8.80076 16.3781C6.99192 15.2649 5.30918 13.9547 3.78266 12.471C2.70945 11.4025 1.89242 10.0998 1.39417 8.66282C0.497538 5.87525 1.54486 2.68402 4.47585 1.7396C6.01626 1.2437 7.69863 1.52713 8.99666 2.50123C10.2952 1.52831 11.977 1.24498 13.5175 1.7396C16.4485 2.68402 17.5033 5.87525 16.6067 8.66282C16.1084 10.0998 15.2914 11.4025 14.2182 12.471C12.6917 13.9547 11.0089 15.2649 9.2001 16.3781L9.0042 16.5L8.80076 16.3781Z" stroke="#200E32" stroke-width="1.2556" stroke-linecap="round" stroke-linejoin="round"/>
<path d="M12.1162 4.87744C13.004 5.16103 13.6347 5.95803 13.7136 6.89576" stroke="#200E32" stroke-width="1.2556" stroke-linecap="round" stroke-linejoin="round"/>
</svg>
