<svg width="22" height="22" viewBox="0 0 22 22" fill="none" xmlns="http://www.w3.org/2000/svg">
<path d="M17.875 9.34316V18.1363C17.8714 18.2681 17.8419 18.3979 17.7882 18.5184C17.7344 18.6388 17.6574 18.7474 17.5617 18.8381C17.4659 18.9288 17.3532 18.9997 17.23 19.0468C17.1068 19.0938 16.9756 19.1162 16.8438 19.1125H5.15625C5.02442 19.1162 4.89317 19.0938 4.76998 19.0468C4.6468 18.9997 4.5341 18.9288 4.43833 18.8381C4.34256 18.7474 4.26559 18.6388 4.21183 18.5184C4.15807 18.3979 4.12856 18.2681 4.125 18.1363V9.33972" stroke="black" stroke-width="0.5"/>
<path d="M9.02686 19.085V13.2172H13.0075V19.085" stroke="black" stroke-width="0.5"/>
<path d="M2.90109 6.59308C2.90109 6.59308 2.52296 9.26058 5.11828 9.6662C5.49718 9.72243 5.88397 9.68957 6.24795 9.57023C6.61194 9.4509 6.9431 9.24836 7.21515 8.9787C7.45744 9.24025 7.7518 9.44817 8.07929 9.58908C8.40677 9.73 8.76014 9.8008 9.11664 9.79691C9.47314 9.79302 9.82487 9.71455 10.1492 9.56652C10.4736 9.4185 10.7633 9.20421 10.9998 8.93745C11.4389 9.43634 12.0559 9.74356 12.7186 9.79339C13.4489 9.73441 14.1497 9.47904 14.7467 9.05433C14.952 9.27774 15.1996 9.45813 15.4752 9.585C15.7508 9.71188 16.0488 9.78271 16.352 9.79339C16.752 9.79521 17.1476 9.70974 17.5112 9.54296C17.8747 9.37618 18.1975 9.13209 18.4571 8.82772C18.7166 8.52335 18.9066 8.16602 19.0139 7.78066C19.1211 7.39531 19.143 6.9912 19.078 6.59652L17.4555 3.11089C17.4309 3.0451 17.3867 2.98841 17.329 2.94846C17.2712 2.90852 17.2026 2.88722 17.1323 2.88745H4.81234C4.74169 2.88748 4.67277 2.90928 4.61495 2.94987C4.55714 2.99047 4.51323 3.04789 4.48921 3.11433L2.90109 6.59308Z" stroke="black" stroke-width="0.5"/>
<path d="M2.90137 6.59314H19.092" stroke="black" stroke-width="0.5"/>
<path d="M7.23242 6.59308V2.88745" stroke="black" stroke-width="0.5"/>
<path d="M11.0171 6.59308V2.88745" stroke="black" stroke-width="0.5"/>
<path d="M14.7847 6.59308V2.88745" stroke="black" stroke-width="0.5"/>
</svg>
