<svg width="20" height="22" viewBox="0 0 20 22" fill="none" xmlns="http://www.w3.org/2000/svg">
<path fill-rule="evenodd" clip-rule="evenodd" d="M10 1L1 8L1 19C1 19.5304 1.21071 20.0391 1.58579 20.4142C1.96086 20.7893 2.46957 21 3 21H7L7 11L13 11V21L17 21C17.5304 21 18.0391 20.7893 18.4142 20.4142C18.7893 20.0391 19 19.5304 19 19L19 8L10 1Z" fill="#DF4584"/>
<path d="M1 8L0.386059 7.21065C0.142473 7.4001 0 7.69141 0 8H1ZM10 1L10.6139 0.210648C10.2528 -0.0702159 9.74717 -0.0702159 9.38606 0.210648L10 1ZM1.58579 20.4142L2.29289 19.7071L1.58579 20.4142ZM7 21V22C7.55228 22 8 21.5523 8 21H7ZM7 11V10C6.44772 10 6 10.4477 6 11H7ZM13 11H14C14 10.4477 13.5523 10 13 10V11ZM13 21H12C12 21.5523 12.4477 22 13 22V21ZM19 8L20 8C20 7.69141 19.8575 7.4001 19.6139 7.21065L19 8ZM1.61394 8.78935L10.6139 1.78935L9.38606 0.210648L0.386059 7.21065L1.61394 8.78935ZM2 19L2 8H0L0 19H2ZM2.29289 19.7071C2.10536 19.5196 2 19.2652 2 19H0C0 19.7957 0.31607 20.5587 0.87868 21.1213L2.29289 19.7071ZM3 20C2.73478 20 2.48043 19.8946 2.29289 19.7071L0.87868 21.1213C1.44129 21.6839 2.20435 22 3 22L3 20ZM7 20H3L3 22H7V20ZM8 21L8 11H6L6 21H8ZM7 12L13 12V10L7 10L7 12ZM12 11V21H14V11H12ZM17 20L13 20V22L17 22V20ZM17.7071 19.7071C17.5196 19.8946 17.2652 20 17 20V22C17.7956 22 18.5587 21.6839 19.1213 21.1213L17.7071 19.7071ZM18 19C18 19.2652 17.8946 19.5196 17.7071 19.7071L19.1213 21.1213C19.6839 20.5587 20 19.7957 20 19H18ZM18 8L18 19H20L20 8L18 8ZM9.38606 1.78935L18.3861 8.78935L19.6139 7.21065L10.6139 0.210648L9.38606 1.78935Z" fill="#DF4584"/>
</svg>
