<svg width="24" height="24" viewBox="0 0 24 24" fill="none" xmlns="http://www.w3.org/2000/svg">
<g clip-path="url(#clip0_896_2823)">
<path d="M12 23.7375C6.0563 23.7375 0.0187988 22.4625 0.0187988 20.025C0.0187988 17.85 4.6688 16.9501 6.6563 16.6688H6.7313C7.01255 16.6688 7.2563 16.875 7.2938 17.1563C7.31255 17.3063 7.27505 17.4563 7.1813 17.5688C7.08755 17.6813 6.9563 17.775 6.8063 17.7938C2.66255 18.3938 1.12505 19.4813 1.12505 20.0438C1.12505 21.0938 5.36255 22.6313 11.9813 22.6313C18.6 22.6313 22.8375 21.0938 22.8375 20.0438C22.8375 19.4813 21.2813 18.3938 17.1 17.7938C16.95 17.775 16.8188 17.7 16.725 17.5688C16.6313 17.4563 16.5938 17.3063 16.6125 17.1563C16.65 16.875 16.8938 16.6688 17.175 16.6688H17.25C19.2563 16.9501 23.9438 17.85 23.9438 20.025C23.9625 22.4438 17.9438 23.7375 12 23.7375ZM11.6063 19.7626C11.325 19.5 4.83755 13.3688 4.83755 7.35005C4.83755 3.41255 8.0438 0.206299 11.9813 0.206299C15.9188 0.206299 19.125 3.41255 19.125 7.35005C19.125 13.2 12.6375 19.4813 12.3563 19.7438L11.9813 20.1188L11.6063 19.7626ZM12 1.3313C8.6813 1.3313 5.9813 4.0313 5.9813 7.35005C5.9813 12.0563 10.575 17.1 12 18.5438C13.4438 17.0625 18.0375 11.925 18.0375 7.35005C18.0188 4.05005 15.3188 1.3313 12 1.3313ZM12 10.5375C10.125 10.5375 8.6063 9.0188 8.6063 7.1438C8.6063 5.2688 10.125 3.75005 12 3.75005C13.875 3.75005 15.3938 5.2688 15.3938 7.1438C15.3938 9.0188 13.875 10.5375 12 10.5375ZM12 4.87505C10.7438 4.87505 9.7313 5.88755 9.7313 7.1438C9.7313 8.40005 10.7438 9.41255 12 9.41255C13.2563 9.41255 14.2688 8.40005 14.2688 7.1438C14.2688 5.88755 13.2375 4.87505 12 4.87505Z" fill="white"/>
</g>
<defs>
<clipPath id="clip0_896_2823">
<rect width="24" height="24" fill="white"/>
</clipPath>
</defs>
</svg>
