<svg width="16" height="21" viewBox="0 0 16 21" fill="none" xmlns="http://www.w3.org/2000/svg">
<path d="M13 13.8854V14.292L13.2838 14.5833L14.6295 15.9644H1.37054L2.71623 14.5833L3 14.292V13.8854V8.75379C3 5.92265 4.43062 3.79977 6.73629 3.2391L7.5 3.05339V2.26742V1.56952C7.5 1.2453 7.74662 1.03003 8 1.03003C8.25338 1.03003 8.5 1.2453 8.5 1.56952V2.26742V3.05274L9.26293 3.23891C11.56 3.79944 13 5.93383 13 8.75379V13.8854ZM8.30758 18.9907C8.20931 19.025 8.10561 19.0434 8 19.0434C7.89269 19.0434 7.78785 19.025 7.68887 18.9907H8.30758Z" stroke="#A8A8A8" stroke-width="2"/>
</svg>
