<svg width="16" height="14" viewBox="0 0 16 14" fill="none" xmlns="http://www.w3.org/2000/svg">
<path d="M14.912 9.90414L14.048 9.49614C13.928 9.42414 13.76 9.42414 13.64 9.49614L8.48005 11.9441C8.19205 12.0881 7.83205 12.0881 7.54405 11.9441L2.36005 9.49614C2.24005 9.42414 2.07205 9.42414 1.95205 9.49614L1.08805 9.90414C0.704049 10.0961 0.704049 10.6001 1.08805 10.7921L7.52005 13.8401C7.80805 13.9841 8.16805 13.9841 8.45605 13.8401L14.888 10.7921C15.296 10.6001 15.296 10.0721 14.912 9.90414Z" fill="white"/>
<path d="M14.912 6.54403L14.024 6.13603C13.904 6.06403 13.736 6.06403 13.616 6.13603L8.48005 8.58403C8.19205 8.72803 7.83205 8.72803 7.54405 8.58403L2.38405 6.13603C2.26405 6.06403 2.09605 6.06403 1.97605 6.13603L1.08805 6.54403C0.704049 6.73603 0.704049 7.24003 1.08805 7.43203L7.52005 10.504C7.80805 10.648 8.16805 10.648 8.45605 10.504L14.888 7.45603C15.296 7.26403 15.296 6.73603 14.912 6.54403Z" fill="white"/>
<path d="M1.08805 4.07208L7.52005 7.12008C7.80805 7.26408 8.16805 7.26408 8.45605 7.12008L14.888 4.07208C15.272 3.88008 15.272 3.37608 14.888 3.18408L8.45605 0.136076C8.16805 -0.00792383 7.80805 -0.00792383 7.52005 0.136076L1.08805 3.20808C0.704049 3.37608 0.704049 3.90408 1.08805 4.07208Z" fill="white"/>
</svg>
