<svg width="40" height="40" viewBox="0 0 40 40" fill="none" xmlns="http://www.w3.org/2000/svg">
<path d="M34.6887 9.99994H29.176C28.8981 9.99994 28.673 10.2251 28.673 10.5029C28.673 10.7807 28.8981 11.0059 29.176 11.0059H31.6489C31.8627 12.3028 32.8888 13.3288 34.1857 13.5427V19.4154C32.8888 19.6293 31.8627 20.6554 31.6489 21.9523H13.2779C13.0641 20.6554 12.038 19.6294 10.7411 19.4154V13.5427C12.038 13.3289 13.064 12.3028 13.2779 11.0059H27.4469C27.7247 11.0059 27.9499 10.7807 27.9499 10.5029C27.9499 10.2251 27.7247 9.99994 27.4469 9.99994H10.2381C9.96028 9.99994 9.73508 10.2251 9.73508 10.5029V22.4552C9.73508 22.733 9.96028 22.9582 10.2381 22.9582H24.1229V24.4336H5.81432V18.9134C5.81432 18.3724 6.25447 17.9323 6.79543 17.9323H8.56128C8.83907 17.9323 9.06427 17.7071 9.06427 17.4293C9.06427 17.1515 8.83907 16.9263 8.56128 16.9263H6.79537C5.69979 16.9264 4.80835 17.8178 4.80835 18.9135V28.013C4.80835 29.1086 5.69979 30 6.79537 30H23.1418C24.2375 30 25.1289 29.1086 25.1289 28.013V22.9583H34.6887C34.9665 22.9583 35.1917 22.733 35.1917 22.4553V10.5029C35.1917 10.2251 34.9665 9.99994 34.6887 9.99994ZM10.7411 11.0059H12.2517C12.0665 11.747 11.4821 12.3314 10.7411 12.5165V11.0059ZM10.7411 21.9522V20.4416C11.4821 20.6267 12.0665 21.2111 12.2517 21.9522H10.7411ZM24.1229 26.3785H9.77852C9.50073 26.3785 9.27553 26.6037 9.27553 26.8815C9.27553 27.1593 9.50073 27.3845 9.77852 27.3845H24.1229V28.0129C24.1229 28.5539 23.6829 28.994 23.142 28.994H6.79537C6.25441 28.994 5.81426 28.5539 5.81426 28.0129V27.3845H7.90068C8.17847 27.3845 8.40367 27.1593 8.40367 26.8815C8.40367 26.6037 8.17847 26.3785 7.90068 26.3785H5.81432V25.4396H24.1229V26.3785ZM34.1857 21.9522H32.6751C32.8602 21.2111 33.4446 20.6267 34.1857 20.4416V21.9522ZM34.1857 12.5165C33.4446 12.3314 32.8602 11.747 32.6751 11.0059H34.1857V12.5165Z" fill="white"/>
<path d="M22.4633 11.8807C20.3961 11.8807 18.7144 13.9436 18.7144 16.4791C18.7144 19.0146 20.3961 21.0774 22.4633 21.0774C24.5304 21.0774 26.2122 19.0145 26.2122 16.4791C26.2122 13.9435 24.5304 11.8807 22.4633 11.8807ZM22.4633 20.0714C20.9509 20.0714 19.7204 18.4599 19.7204 16.4791C19.7204 14.4983 20.9509 12.8867 22.4633 12.8867C23.9758 12.8867 25.2062 14.4983 25.2062 16.4791C25.2062 18.4599 23.9758 20.0714 22.4633 20.0714Z" fill="white"/>
<path d="M32.7471 15.3391H27.772C27.4942 15.3391 27.269 15.5643 27.269 15.842C27.269 16.1198 27.4942 16.345 27.772 16.345H32.7471C33.0249 16.345 33.25 16.1198 33.25 15.842C33.25 15.5643 33.0249 15.3391 32.7471 15.3391Z" fill="white"/>
<path d="M16.9119 15.3391H11.9368C11.659 15.3391 11.4338 15.5643 11.4338 15.842C11.4338 16.1198 11.659 16.345 11.9368 16.345H16.9119C17.1897 16.345 17.4149 16.1198 17.4149 15.842C17.4149 15.5643 17.1897 15.3391 16.9119 15.3391Z" fill="white"/>
<path d="M32.7471 17.053H30.0169C29.7391 17.053 29.5139 17.2782 29.5139 17.556C29.5139 17.8338 29.7391 18.059 30.0169 18.059H32.7471C33.0249 18.059 33.2501 17.8338 33.2501 17.556C33.2501 17.2782 33.0249 17.053 32.7471 17.053Z" fill="white"/>
<path d="M14.667 17.053H11.9368C11.659 17.053 11.4338 17.2782 11.4338 17.556C11.4338 17.8338 11.659 18.059 11.9368 18.059H14.667C14.9448 18.059 15.17 17.8338 15.17 17.556C15.17 17.2782 14.9448 17.053 14.667 17.053Z" fill="white"/>
</svg>
