<svg width="40" height="40" viewBox="0 0 40 40" fill="none" xmlns="http://www.w3.org/2000/svg">
<path d="M30.1991 20.8889V20.8819M27.5263 13.1111C27.8832 11.9841 28.9448 11.1667 30.199 11.1667C31.746 11.1667 33 12.4103 33 13.9444C33 16.176 30.6497 15.0789 30.2632 17.4167M12.4737 23.6667H23.4211C26.444 23.6667 28.8947 26.154 28.8947 29.2222V32H7V29.2222C7 26.154 9.45065 23.6667 12.4737 23.6667ZM23.4211 12.5556C23.4211 15.6238 20.9703 18.1111 17.9474 18.1111C14.9243 18.1111 12.4737 15.6238 12.4737 12.5556C12.4737 9.48731 14.9243 7 17.9474 7C20.9703 7 23.4211 9.48731 23.4211 12.5556Z" stroke="white" stroke-width="2" stroke-linecap="round" stroke-linejoin="round"/>
</svg>
