<svg width="24" height="24" viewBox="0 0 24 24" fill="none" xmlns="http://www.w3.org/2000/svg">
<path d="M16.9584 11.0416L15.4235 12.5765C14.9507 13.0493 14.7454 13.7272 14.8766 14.3829L15.2 16L15.2456 16.2281C15.3422 16.7111 14.8159 17.0765 14.3971 16.8173L13.0527 15.985C12.4077 15.5857 11.5923 15.5857 10.9473 15.985L9.60286 16.8173C9.18408 17.0765 8.65778 16.7111 8.75437 16.2281L8.79999 16L9.12341 14.3829C9.25455 13.7272 9.04931 13.0493 8.57646 12.5765L6.99999 11C6.63097 10.631 6.89232 9.99999 7.4142 9.99999H7.49999H8.9413C9.77796 9.99999 10.5262 9.4792 10.8168 8.69462L11.4444 6.99999C11.6354 6.48442 12.3646 6.48442 12.5556 6.99999L13.1832 8.69462C13.4738 9.4792 14.222 9.99999 15.0587 9.99999H16.5H16.527C17.0705 9.99999 17.3428 10.6572 16.9584 11.0416Z" stroke="black" stroke-width="1.5" stroke-linejoin="round"/>
<path d="M3 12C3 4.5885 4.5885 3 12 3C19.4115 3 21 4.5885 21 12C21 19.4115 19.4115 21 12 21C4.5885 21 3 19.4115 3 12Z" stroke="black" stroke-width="1.5"/>
</svg>
