<svg width="20" height="20" viewBox="0 0 20 20" fill="none" xmlns="http://www.w3.org/2000/svg">
<path fill-rule="evenodd" clip-rule="evenodd" d="M5 5H11.25C11.9403 5 12.5 4.44035 12.5 3.75C12.5 3.05965 11.9403 2.5 11.25 2.5H5C3.61929 2.5 2.5 3.61929 2.5 5V15C2.5 16.3807 3.61929 17.5 5 17.5H15C16.3807 17.5 17.5 16.3807 17.5 15V12.5C17.5 11.8096 16.9404 11.25 16.25 11.25C15.5596 11.25 15 11.8096 15 12.5V15H5V5ZM19.0089 2.86611C18.5208 2.37796 17.7292 2.37796 17.2411 2.86611L10.625 9.48224L9.63389 8.49111C9.14572 8.00296 8.35428 8.00296 7.86611 8.49111C7.37796 8.97928 7.37796 9.77073 7.86611 10.2589L9.74111 12.1339C9.97554 12.3683 10.2935 12.5 10.625 12.5C10.9565 12.5 11.2745 12.3683 11.5089 12.1339L19.0089 4.63389C19.497 4.14572 19.497 3.35428 19.0089 2.86611Z" fill="#DF4584"/>
</svg>
