<svg width="20" height="16" viewBox="0 0 20 16" fill="none" xmlns="http://www.w3.org/2000/svg">
<path d="M15.1284 7.02086C16.5972 7.02086 17.7887 5.83019 17.7887 4.36138C17.7887 2.89258 16.5972 1.7019 15.1284 1.7019" stroke="black" stroke-width="0.5" stroke-linecap="round" stroke-linejoin="round"/>
<path d="M16.3516 9.91101C16.7902 9.94126 17.2263 10.0034 17.6557 10.1001C18.2523 10.2169 18.9699 10.4614 19.2253 10.9966C19.3883 11.3395 19.3883 11.7386 19.2253 12.0823C18.9707 12.6175 18.2523 12.8612 17.6557 12.9839" stroke="black" stroke-width="0.5" stroke-linecap="round" stroke-linejoin="round"/>
<path d="M4.76579 7.02086C3.29698 7.02086 2.10547 5.83019 2.10547 4.36138C2.10547 2.89258 3.29698 1.7019 4.76579 1.7019" stroke="black" stroke-width="0.5" stroke-linecap="round" stroke-linejoin="round"/>
<path d="M3.54268 9.91101C3.10405 9.94126 2.66795 10.0034 2.23856 10.1001C1.64197 10.2169 0.92437 10.4614 0.669766 10.9966C0.505911 11.3395 0.505911 11.7386 0.669766 12.0823C0.923529 12.6175 1.64197 12.8612 2.23856 12.9839" stroke="black" stroke-width="0.5" stroke-linecap="round" stroke-linejoin="round"/>
<path fill-rule="evenodd" clip-rule="evenodd" d="M9.94277 10.4838C12.919 10.4838 15.4617 10.9342 15.4617 12.7365C15.4617 14.5381 12.9358 15.0053 9.94277 15.0053C6.96567 15.0053 4.42383 14.5549 4.42383 12.7525C4.42383 10.9501 6.9497 10.4838 9.94277 10.4838Z" stroke="black" stroke-width="0.5" stroke-linecap="round" stroke-linejoin="round"/>
<path fill-rule="evenodd" clip-rule="evenodd" d="M9.94298 7.9128C7.98009 7.9128 6.40625 6.33896 6.40625 4.37523C6.40625 2.41234 7.98009 0.838501 9.94298 0.838501C11.9059 0.838501 13.4797 2.41234 13.4797 4.37523C13.4797 6.33896 11.9059 7.9128 9.94298 7.9128Z" stroke="black" stroke-width="0.5" stroke-linecap="round" stroke-linejoin="round"/>
</svg>
