<svg width="16" height="14" viewBox="0 0 16 14" fill="none" xmlns="http://www.w3.org/2000/svg">
<path d="M4.08001 0.175062C3.64798 -0.112881 3.07198 -0.0329722 2.70401 0.335108L2.48002 0.559102L2.23995 0.319036C1.75992 -0.160992 0.959924 -0.096935 0.57601 0.495042C0.288067 0.927071 0.367975 1.50307 0.736055 1.87104L2.38406 3.51904C2.44801 3.58299 2.52803 3.58299 2.59209 3.51904L4.25603 1.8551C4.73606 1.35913 4.67199 0.559119 4.08001 0.175062Z" fill="#A8A8A8"/>
<path d="M4.08001 5.02308C3.64798 4.73514 3.07198 4.81505 2.70401 5.18313L2.48002 5.40712L2.23995 5.16706C1.75992 4.68703 0.959924 4.75109 0.57601 5.34306C0.288067 5.77509 0.367975 6.35109 0.736055 6.71907L2.38406 8.36707C2.44801 8.43102 2.52803 8.43102 2.59209 8.36707L4.25603 6.70312C4.73606 6.20715 4.67199 5.40714 4.08001 5.02308Z" fill="#A8A8A8"/>
<path d="M4.08001 9.87111C3.64798 9.58316 3.07198 9.66307 2.70401 10.0312L2.48002 10.2551L2.23995 10.0151C1.75992 9.53505 0.959924 9.59911 0.57601 10.1911C0.288067 10.6231 0.367975 11.1991 0.736055 11.5671L2.38406 13.2151C2.44801 13.279 2.52803 13.279 2.59209 13.2151L4.25603 11.5511C4.73606 11.0552 4.67199 10.2552 4.08001 9.87111Z" fill="#A8A8A8"/>
<path d="M6.35183 2.43108H14.9438C15.3118 2.43108 15.5999 2.12705 15.5999 1.77505C15.5999 1.42305 15.2958 1.11902 14.9438 1.11902H6.35183C5.98386 1.11902 5.6958 1.42305 5.6958 1.77505C5.6958 2.12705 5.98386 2.43108 6.35183 2.43108Z" fill="#A8A8A8"/>
<path d="M14.9438 5.96704H6.35183C5.98386 5.96704 5.6958 6.27107 5.6958 6.62307C5.6958 6.97507 5.99983 7.2791 6.35183 7.2791H14.9438C15.3118 7.2791 15.5999 6.97507 15.5999 6.62307C15.5999 6.27107 15.2958 5.96704 14.9438 5.96704Z" fill="#A8A8A8"/>
<path d="M14.9438 10.8151H6.35183C5.98386 10.8151 5.6958 11.1191 5.6958 11.4711C5.6958 11.8391 5.99983 12.1271 6.35183 12.1271H14.9438C15.3118 12.1271 15.5999 11.8231 15.5999 11.4711C15.5999 11.1031 15.2958 10.8151 14.9438 10.8151Z" fill="#A8A8A8"/>
</svg>
